<?xml version="1.0" encoding="utf-8"?>
<!-- Generator: Adobe Illustrator 24.0.1, SVG Export Plug-In . SVG Version: 6.00 Build 0)  -->
<svg version="1.1" xmlns="http://www.w3.org/2000/svg" xmlns:xlink="http://www.w3.org/1999/xlink" x="0px" y="0px"
	 viewBox="0 0 1920 1080" style="enable-background:new 0 0 1920 1080;" xml:space="preserve">
<style type="text/css">
	.st0{fill-rule:evenodd;clip-rule:evenodd;fill:url(#SVGID_1_);}
	.st1{fill:none;}
	.st2{fill:#FFFFFF;}
	.st3{fill:#202223;}
</style>
<g id="Layer_1">
	<linearGradient id="SVGID_1_" gradientUnits="userSpaceOnUse" x1="-61.0722" y1="911.4463" x2="1981.4358" y2="168.0342">
		<stop  offset="0.3715" style="stop-color:#12D0DD"/>
		<stop  offset="0.5333" style="stop-color:#1BD5DC"/>
		<stop  offset="0.8014" style="stop-color:#35E2DA"/>
		<stop  offset="0.9944" style="stop-color:#4BEED8"/>
	</linearGradient>
	<rect x="0.2" y="-0.3" class="st0" width="1920" height="1080"/>
</g>
<g id="Layer_3">
</g>
<g id="Layer_4">
	<g>
		<path class="st1" d="M820,461.2c6.6,18.5,24.3,31.7,45,31.7c15.5,0,29.2-7.4,38-18.7c-20.4-8.8-42.9-13.7-66.5-13.7
			C831,460.4,825.5,460.7,820,461.2z"/>
		<path class="st1" d="M669,628c0,92.6,75,167.6,167.6,167.6s167.6-75,167.6-167.6c0-17.7-2.8-34.8-7.9-50.9
			c-7.4,4.1-15.2,7.7-23.4,10.5c-16.6,6.2-34.6,9.7-53.4,9.7c-74.1,0-135.9-53-149.4-123.1C710.6,499.9,669,559.1,669,628z"/>
		<path class="st1" d="M912.8,443.8c-0.7-25.8-21.8-46.5-47.8-46.5c-21,0-38.8,13.5-45.3,32.4c5.8-0.5,11.7-0.8,17.6-0.8
			C864.1,428.8,889.6,434.2,912.8,443.8z"/>
		<path class="st2" d="M1370,444.6c0-63.2-55.3-63.2-55.3-63.2h-252.3c-23.7-54.2-77.8-92.1-140.8-92.1
			c-66.8,0-123.6,42.6-144.7,102.1c-5.9,15.7-9.3,32.6-9.7,50.2c0.3-0.1,0.6-0.2,0.9-0.3c0,0.5,0,1,0,1.5c0,10.5,1.1,20.8,3.1,30.8
			c-0.4,0.2-0.8,0.3-1.2,0.5c13.6,70.2,75.3,123.1,149.4,123.1c18.8,0,36.8-3.4,53.4-9.7c8.1-2.9,15.9-6.4,23.4-10.5
			c-0.1-0.2-0.1-0.3-0.2-0.5c-14.8-46.1-49.1-83.4-93.1-102.5c-8.7,11.4-22.5,18.7-38,18.7c-20.7,0-38.4-13.2-45-31.7
			c-1.8-5-2.8-10.5-2.8-16.2c0-5.4,0.9-10.6,2.6-15.4c6.4-18.8,24.3-32.4,45.3-32.4c26,0,47.1,20.7,47.8,46.5
			c50.5,20.9,90.4,62.1,109.6,113.4c0.1,0.4,0.3,0.8,0.4,1.2c13.7-12,25.3-26.5,34-42.6h14.8c21.9-14.9,44.7-25.4,66.7-9.7
			c21.9,15.8,27.2,3.5,27.2,3.5l12.3-12.3c17.1-17.1,18.4-14.9,27.2-14.9s28.1,22.8,28.1,22.8c14.9,15.8,24.6,1.8,24.6,1.8
			c17.5-23.7,31.6-14.9,31.6-14.9c29,34.2,36.8,15.8,36.8,15.8C1371.7,467.4,1370,444.6,1370,444.6z"/>
		<path class="st3" d="M912.8,443.8c-23.2-9.6-48.7-14.9-75.4-14.9c-5.9,0-11.8,0.3-17.6,0.8c-1.7,4.8-2.6,10-2.6,15.4
			c0,5.7,1,11.1,2.8,16.2c5.4-0.5,10.9-0.8,16.5-0.8c23.6,0,46.1,4.9,66.5,13.7c44,19,78.2,56.4,93.1,102.5c0.1,0.2,0.1,0.3,0.2,0.5
			c5.1,16.1,7.9,33.2,7.9,50.9c0,92.6-75,167.6-167.6,167.6S669,720.6,669,628c0-68.9,41.6-128.1,101.1-153.8
			c0.4-0.2,0.8-0.3,1.2-0.5c-2-9.9-3.1-20.2-3.1-30.8c0-0.5,0-1,0-1.5c-0.3,0.1-0.6,0.2-0.9,0.3C692.9,470,640,541.9,640,626.3
			c0,109,88.4,197.4,197.4,197.4s197.4-88.4,197.4-197.4c0-23.9-4.2-46.7-12-67.9c-0.1-0.4-0.3-0.8-0.4-1.2
			C1003.2,505.9,963.3,464.7,912.8,443.8z"/>
	</g>
</g>
</svg>
