<?xml version="1.0" encoding="utf-8"?>
<!-- Generator: Adobe Illustrator 24.0.1, SVG Export Plug-In . SVG Version: 6.00 Build 0)  -->
<svg version="1.1" xmlns="http://www.w3.org/2000/svg" xmlns:xlink="http://www.w3.org/1999/xlink" x="0px" y="0px"
	 viewBox="0 0 1920 1080" style="enable-background:new 0 0 1920 1080;" xml:space="preserve">
<style type="text/css">
	.st0{fill-rule:evenodd;clip-rule:evenodd;fill:url(#SVGID_1_);}
	.st1{fill:#070707;}
	.st2{fill-rule:evenodd;clip-rule:evenodd;fill:#FFFDFE;}
</style>
<g id="Layer_1">
	<linearGradient id="SVGID_1_" gradientUnits="userSpaceOnUse" x1="1622.7288" y1="1329.333" x2="297.6349" y2="-249.8525">
		<stop  offset="0.2458" style="stop-color:#FEC700"/>
		<stop  offset="0.4042" style="stop-color:#FECB09"/>
		<stop  offset="0.6676" style="stop-color:#FED723"/>
		<stop  offset="0.9944" style="stop-color:#FFEA4B"/>
	</linearGradient>
	<rect x="0.2" y="-0.3" class="st0" width="1920" height="1080"/>
</g>
<g id="Layer_4">
</g>
<g id="Layer_2">
	<g>
		<g>
			<path class="st1" d="M996.8,173.8L830.2,340.3c4.3-13.1,9.6-25.7,15.8-37.8l113-113C971.1,183.4,983.7,178.1,996.8,173.8z"/>
			<path class="st1" d="M1054.7,161.9L818.3,398.2c0.8-8.6,2-17.2,3.6-25.5l207.3-207.3C1037.5,163.8,1046,162.6,1054.7,161.9z"/>
			<path class="st1" d="M1100.8,161.8L818.2,444.3c-0.6-6.9-0.9-13.9-1-21l262.5-262.5C1086.8,160.8,1093.8,161.2,1100.8,161.8z"/>
			<path class="st1" d="M1140.3,168.2L824.7,483.9c-1.5-6-2.7-12.1-3.8-18.2l301.2-301.2C1128.3,165.5,1134.3,166.8,1140.3,168.2z"
				/>
			<path class="st1" d="M1175.2,179.4L835.8,518.7c-2.1-5.3-4.1-10.7-5.8-16.1l329-329C1164.5,175.3,1169.9,177.3,1175.2,179.4z"/>
			<path class="st1" d="M1206.2,194.3L850.7,549.8c-2.7-4.7-5.2-9.5-7.5-14.4l348.6-348.6C1196.7,189.1,1201.5,191.6,1206.2,194.3z"
				/>
			<path class="st1" d="M1234.1,212.4L868.9,577.7c-3.1-4.2-6.2-8.5-9-12.9l361.4-361.4C1225.6,206.3,1229.9,209.3,1234.1,212.4z"/>
			<path class="st1" d="M1259,233.5l-369,369c-3.6-3.7-7.1-7.6-10.4-11.5l367.9-367.9C1251.4,226.5,1255.3,229.9,1259,233.5z"/>
			<path class="st1" d="M1281,257.5L913.9,624.6c-4-3.3-8-6.6-11.8-10.2l368.7-368.7C1274.4,249.5,1277.8,253.5,1281,257.5z"/>
			<path class="st1" d="M1300.2,284.4L940.8,643.7c-4.5-2.8-8.9-5.7-13.2-8.8l363.8-363.8C1294.5,275.5,1297.4,279.9,1300.2,284.4z"
				/>
			<path class="st1" d="M1316.2,314.4L970.8,659.7c-5-2.3-9.9-4.7-14.7-7.2l352.9-352.9C1311.5,304.4,1313.9,309.4,1316.2,314.4z"/>
			<path class="st1" d="M1328.6,347.9l-324.3,324.3c-5.6-1.6-11.1-3.5-16.5-5.5l335.3-335.3C1325.2,336.8,1327,342.3,1328.6,347.9z"
				/>
			<path class="st1" d="M1336.8,385.8l-294.6,294.6c-6.3-0.9-12.5-2-18.7-3.3l310-310C1334.8,373.2,1335.9,379.4,1336.8,385.8z"/>
			<path class="st1" d="M1321.2,517.4c-6.2,15.8-13.9,30.8-22.9,44.9l-79.6,79.6c-14.1,9-29.1,16.7-44.9,22.9L1321.2,517.4z"/>
			<path class="st1" d="M1337.1,455.5c-1.2,9.1-2.8,18.1-4.9,26.9l-193.4,193.4c-8.8,2.1-17.8,3.7-26.9,4.9L1337.1,455.5z"/>
			<path class="st1" d="M1339.3,421.8c0,2.5,0,5.1-0.1,7.6l-253.3,253.3c-2.5,0.1-5.1,0.1-7.6,0.1c-4.7,0-9.4-0.1-14.1-0.4
				l274.7-274.7C1339.1,412.4,1339.3,417.1,1339.3,421.8z"/>
		</g>
		<g>
			<path class="st2" d="M722.5,426.1l-113,113C634.5,490.6,674.1,451,722.5,426.1z"/>
			<path class="st2" d="M1061.8,798.7c-20.4,32-47.7,59.2-79.6,79.6L1061.8,798.7z"/>
			<path class="st2" d="M1095.7,718.8c-2.8,12-6.5,23.7-11,35L937.3,901.3c-11.3,4.4-23,8.1-35,11L1095.7,718.8z"/>
			<path class="st2" d="M1102.6,665.9c-0.2,8.8-0.9,17.5-2,26.1L875.4,917.1c-8.6,1.1-17.3,1.8-26.1,2L1102.6,665.9z"/>
			<path class="st2" d="M1102.4,644.2L827.7,918.9c-7.4-0.4-14.7-1.1-22-2.1l294.6-294.6C1101.3,629.5,1102,636.8,1102.4,644.2z"/>
			<path class="st2" d="M1097,603.6l-310,310c-6.5-1.4-12.9-3-19.2-4.9l324.3-324.3C1094,590.7,1095.6,597.1,1097,603.6z"/>
			<path class="st2" d="M1086.7,567.9L751.3,903.2c-5.8-2.1-11.5-4.5-17-7l345.4-345.4C1082.2,556.4,1084.5,562.1,1086.7,567.9z"/>
			<path class="st2" d="M1072.4,536.1L719.6,889c-5.2-2.8-10.3-5.7-15.3-8.8l359.4-359.4C1066.8,525.8,1069.7,530.9,1072.4,536.1z"
				/>
			<path class="st2" d="M1054.9,507.7L691.1,871.5c-4.7-3.3-9.2-6.8-13.7-10.4L1044.5,494C1048.2,498.4,1051.6,503,1054.9,507.7z"/>
			<path class="st2" d="M1034.4,482.2L665.6,850.9c-4.2-3.8-8.2-7.8-12.2-11.9l369-369C1026.6,474,1030.6,478,1034.4,482.2z"/>
			<path class="st2" d="M1011,459.6L643,827.5c-3.7-4.3-7.3-8.8-10.7-13.4l365.2-365.2C1002.2,452.3,1006.7,455.9,1011,459.6z"/>
			<path class="st2" d="M984.7,439.9L623.3,801.2c-3.2-4.9-6.2-9.9-9.1-15l355.5-355.5C974.8,433.7,979.8,436.7,984.7,439.9z"/>
			<path class="st2" d="M955.3,423.2L606.7,771.9c-2.6-5.5-5.1-11-7.4-16.7l339.3-339.3C944.3,418.1,949.9,420.6,955.3,423.2z"/>
			<path class="st2" d="M922.5,410l-329,329c-2-6.1-3.8-12.4-5.3-18.7l315.6-315.6C910.1,406.3,916.4,408,922.5,410z"/>
			<path class="st2" d="M885.6,401L584.4,702.2c-1.2-7-2.1-14.1-2.7-21.3l282.6-282.6C871.5,398.9,878.6,399.8,885.6,401z"/>
			<path class="st2" d="M843.3,397.3L580.8,659.8c0-0.5,0-1,0-1.5c0-8,0.3-15.8,1-23.6l236.4-236.4c7.8-0.7,15.6-1,23.6-1
				C842.3,397.3,842.8,397.3,843.3,397.3z"/>
			<path class="st2" d="M792.7,401.9L585.4,609.2c2.1-11.1,4.9-21.9,8.4-32.4l166.5-166.5C770.8,406.8,781.6,404,792.7,401.9z"/>
		</g>
	</g>
</g>
</svg>
