<?xml version="1.0" encoding="utf-8"?>
<!-- Generator: Adobe Illustrator 24.0.1, SVG Export Plug-In . SVG Version: 6.00 Build 0)  -->
<svg version="1.1" xmlns="http://www.w3.org/2000/svg" xmlns:xlink="http://www.w3.org/1999/xlink" x="0px" y="0px"
	 viewBox="0 0 1920 1080" style="enable-background:new 0 0 1920 1080;" xml:space="preserve">
<style type="text/css">
	.st0{fill-rule:evenodd;clip-rule:evenodd;fill:url(#SVGID_1_);}
	.st1{fill:#FFFFFF;}
	.st2{fill:#202223;}
</style>
<g id="Layer_1">
	<linearGradient id="SVGID_1_" gradientUnits="userSpaceOnUse" x1="1622.547" y1="1329.5928" x2="297.453" y2="-249.5927">
		<stop  offset="0.2458" style="stop-color:#12D0DD"/>
		<stop  offset="0.4403" style="stop-color:#1BD5DC"/>
		<stop  offset="0.7625" style="stop-color:#35E2DA"/>
		<stop  offset="0.9944" style="stop-color:#4BEED8"/>
	</linearGradient>
	<rect class="st0" width="1920" height="1080"/>
</g>
<g id="Layer_3">
	<g>
		<path class="st1" d="M917,611l29-227c0,0-2-18,23-56l53-92c0,0,28-43,85-32c0,0,125,14,218,110c0,0,75,66,45,126l-56,102
			c0,0-6,21-55,53l-160,122L917,611z"/>
		<path class="st2" d="M1099,717L918.5,599.2L896.8,776H567.5c-14.1,0-25.5,11.4-25.5,25.5v0c0,14.1,11.4,25.5,25.5,25.5h379
			c7.5,0,14.3-3.3,19-8.5L1099,717z"/>
	</g>
</g>
</svg>
