<?xml version="1.0" encoding="utf-8"?>
<!-- Generator: Adobe Illustrator 24.0.1, SVG Export Plug-In . SVG Version: 6.00 Build 0)  -->
<svg version="1.1" xmlns="http://www.w3.org/2000/svg" xmlns:xlink="http://www.w3.org/1999/xlink" x="0px" y="0px"
	 viewBox="0 0 1920 1080" style="enable-background:new 0 0 1920 1080;" xml:space="preserve">
<style type="text/css">
	.st0{fill-rule:evenodd;clip-rule:evenodd;fill:url(#SVGID_1_);}
	.st1{fill:#FFFFFF;}
	.st2{fill:#202223;}
</style>
<g id="Layer_1">
	<linearGradient id="SVGID_1_" gradientUnits="userSpaceOnUse" x1="0.1818" y1="539.7402" x2="1920.1818" y2="539.7402">
		<stop  offset="0.3715" style="stop-color:#32CBFC"/>
		<stop  offset="0.6543" style="stop-color:#2FC2FA"/>
		<stop  offset="0.9944" style="stop-color:#28B0F7"/>
	</linearGradient>
	<rect x="0.2" y="-0.3" class="st0" width="1920" height="1080"/>
</g>
<g id="Layer_3">
	<g>
		<path class="st1" d="M1442.4,656.6h-105.1c-36.9,0-66.8-29.9-66.8-66.8V484.7c0-36.9,29.9-66.8,66.8-66.8h105.1
			c36.9,0,66.8,29.9,66.8,66.8v105.1C1509.2,626.7,1479.3,656.6,1442.4,656.6z"/>
		<path class="st1" d="M1167.2,656.6h-105.1c-36.9,0-66.8-29.9-66.8-66.8V484.7c0-36.9,29.9-66.8,66.8-66.8h105.1
			c36.9,0,66.8,29.9,66.8,66.8v105.1C1234,626.7,1204.1,656.6,1167.2,656.6z"/>
		<path class="st1" d="M892.9,656.6H787.8c-36.9,0-66.8-29.9-66.8-66.8V484.7c0-36.9,29.9-66.8,66.8-66.8h105.1
			c36.9,0,66.8,29.9,66.8,66.8v105.1C959.7,626.7,929.8,656.6,892.9,656.6z"/>
		<path class="st2" d="M623.7,546.2l-101.5,27.3c-35.6,9.6-72.3-11.5-81.9-47.2l-27.3-101.5c-9.6-35.6,11.5-72.3,47.2-81.9
			l101.5-27.3c35.6-9.6,72.3,11.5,81.9,47.2l27.3,101.5C680.4,500,659.3,536.6,623.7,546.2z"/>
	</g>
</g>
</svg>
