<?xml version="1.0" encoding="utf-8"?>
<!-- Generator: Adobe Illustrator 24.0.1, SVG Export Plug-In . SVG Version: 6.00 Build 0)  -->
<svg version="1.1" xmlns="http://www.w3.org/2000/svg" xmlns:xlink="http://www.w3.org/1999/xlink" x="0px" y="0px"
	 viewBox="0 0 1920 1080" style="enable-background:new 0 0 1920 1080;" xml:space="preserve">
<style type="text/css">
	.st0{fill-rule:evenodd;clip-rule:evenodd;fill:url(#SVGID_1_);}
	.st1{fill:#FFFFFF;}
	.st2{fill:#202223;}
</style>
<g id="Layer_1">
	<linearGradient id="SVGID_1_" gradientUnits="userSpaceOnUse" x1="0.1818" y1="539.7402" x2="1920.1818" y2="539.7402">
		<stop  offset="0" style="stop-color:#FF2C8C"/>
		<stop  offset="0.9944" style="stop-color:#FF308F"/>
	</linearGradient>
	<rect x="0.2" y="-0.3" class="st0" width="1920" height="1080"/>
</g>
<g id="Layer_3">
</g>
<g id="Layer_4">
</g>
<g id="Layer_5">
</g>
<g id="Layer_6">
	<g>
		<path class="st1" d="M925.5,708.5h-345C487.4,708.5,412,633.1,412,540v0c0-93.1,75.4-168.5,168.5-168.5h345
			c93.1,0,168.5,75.4,168.5,168.5v0C1094,633.1,1018.6,708.5,925.5,708.5z"/>
		<circle class="st2" cx="596.5" cy="540" r="123.5"/>
		<g>
			<path class="st1" d="M1476.5,444l-99.9,116.3c-14.2,16.5-39,18.4-55.5,4.2l0,0c-16.5-14.2-18.4-39-4.2-55.5l99.7-116.2
				c-22.6-11.4-48.1-17.9-75.1-17.9c-92,0-166.5,74.5-166.5,166.5S1249.5,708,1341.5,708S1508,633.5,1508,541.5
				C1508,505.1,1496.3,471.4,1476.5,444z"/>
			<path class="st2" d="M1321.1,564.5L1321.1,564.5c16.5,14.2,41.3,12.3,55.5-4.2l99.9-116.3c-15.5-21.5-36-39.1-59.9-51.1
				L1316.9,509C1302.7,525.5,1304.6,550.4,1321.1,564.5z"/>
		</g>
	</g>
</g>
</svg>
