<?xml version="1.0" encoding="utf-8"?>
<!-- Generator: Adobe Illustrator 24.0.1, SVG Export Plug-In . SVG Version: 6.00 Build 0)  -->
<svg version="1.1" id="Layer_1" xmlns="http://www.w3.org/2000/svg" xmlns:xlink="http://www.w3.org/1999/xlink" x="0px" y="0px"
	 viewBox="0 0 1920 1080" style="enable-background:new 0 0 1920 1080;" xml:space="preserve">
<style type="text/css">
	.st0{fill-rule:evenodd;clip-rule:evenodd;fill:#E6ECF0;}
	.st1{fill-rule:evenodd;clip-rule:evenodd;fill:#0033CC;}
	.st2{display:none;}
	.st3{display:inline;fill-rule:evenodd;clip-rule:evenodd;fill:#202223;}
	.st4{opacity:0.75;}
	.st5{fill:#FFFFFF;}
	.st6{opacity:0.75;fill:#FFFFFF;enable-background:new    ;}
</style>
<rect class="st0" width="1920" height="1080"/>
<g id="Artboard">
	<circle id="Oval" class="st1" cx="960" cy="540" r="298.5"/>
	<g id="Icon" transform="translate(130.000000, 130.000000)" class="st2">
		<path id="Rectangle-path" class="st3" d="M688,503.3c0-4.5,3.7-8.1,8.1-8.1h97.4c4.5,0,8.1,3.6,8.1,8.1v40.6
			c0,4.5-3.7,8.1-8.1,8.1h-97.4c-4.5,0-8.1-3.6-8.1-8.1V503.3z"/>
		<path id="Rectangle-path_1_" class="st3" d="M858.4,503.3c0-4.5,3.7-8.1,8.1-8.1h97.4c4.5,0,8.1,3.6,8.1,8.1v40.6
			c0,4.5-3.7,8.1-8.1,8.1h-97.4c-4.5,0-8.1-3.6-8.1-8.1V503.3z"/>
		<path id="Rectangle-path_2_" class="st3" d="M696.1,381.6h267.9c4.5,0,8.1,3.6,8.1,8.1v40.6c0,4.5-3.6,8.1-8.1,8.1H696.1
			c-4.5,0-8.1-3.6-8.1-8.1v-40.6C688,385.2,691.6,381.6,696.1,381.6z"/>
		<path id="Rectangle-path_3_" class="st3" d="M688,276.1c0-4.5,3.6-8.1,8.1-8.1h154.2c4.5,0,8.1,3.6,8.1,8.1v40.6
			c0,4.5-3.6,8.1-8.1,8.1H696.1c-4.5,0-8.1-3.6-8.1-8.1V276.1z"/>
		<path id="Rectangle-path_4_" class="st3" d="M923.3,268h40.6c4.5,0,8.1,3.6,8.1,8.1v40.6c0,4.5-3.6,8.1-8.1,8.1h-40.6
			c-4.5,0-8.1-3.6-8.1-8.1v-40.6C915.2,271.6,918.9,268,923.3,268z"/>
	</g>
</g>
<g class="st4">
	<path class="st5" d="M1014.7,624.3c0,7-2.6,13.9-8.7,17.4c-2.6,1.7-6.1,2.6-10.5,2.6c-18.3,0-18.3-21.8-35.7-21.8
		c-18.3,0-18.3,21.8-35.7,21.8c-18.3,0-18.3-21.8-35.7-21.8c-18.3,0-18.3,21.8-35.7,21.8c-4.4,0-7.8-0.9-10.5-2.6
		c-5.2-3.5-8.7-10.5-8.7-17.4v-98.5c0-49.7,41-90.6,90.6-90.6c50.6,0,90.6,41,90.6,90.6V624.3z"/>
</g>
<path class="st6" d="M1087,624.3c0,7-2.6,13.9-8.7,17.4c-2.6,1.7-6.1,2.6-10.5,2.6c-18.3,0-18.3-21.8-35.7-21.8
	c-18.3,0-18.3,21.8-35.7,21.8c-18.3,0-18.3-21.8-35.7-21.8c-18.3,0-18.3,21.8-35.7,21.8c-4.4,0-7.8-0.9-10.5-2.6
	c-5.2-3.5-8.7-10.5-8.7-17.4v-98.5c0-49.7,40.1-90.6,90.6-90.6c50.6,0,90.6,41,90.6,90.6V624.3z"/>
</svg>
