<?xml version="1.0" encoding="utf-8"?>
<!-- Generator: Adobe Illustrator 24.0.1, SVG Export Plug-In . SVG Version: 6.00 Build 0)  -->
<svg version="1.1" xmlns="http://www.w3.org/2000/svg" xmlns:xlink="http://www.w3.org/1999/xlink" x="0px" y="0px"
	 viewBox="0 0 1920 1080" style="enable-background:new 0 0 1920 1080;" xml:space="preserve">
<style type="text/css">
	.st0{fill-rule:evenodd;clip-rule:evenodd;fill:url(#SVGID_1_);}
	.st1{fill:#FFFFFF;}
	.st2{fill-rule:evenodd;clip-rule:evenodd;fill:#202223;}
</style>
<g id="Layer_1">
	<linearGradient id="SVGID_1_" gradientUnits="userSpaceOnUse" x1="0.1818" y1="539.7402" x2="1920.1818" y2="539.7402">
		<stop  offset="0" style="stop-color:#FEC903"/>
		<stop  offset="0.2216" style="stop-color:#FECD0C"/>
		<stop  offset="0.5898" style="stop-color:#FED926"/>
		<stop  offset="0.9944" style="stop-color:#FFEA49"/>
	</linearGradient>
	<rect x="0.2" y="-0.3" class="st0" width="1920" height="1080"/>
</g>
<g id="Layer_2">
	<g>
		<g>
			<path class="st1" d="M902.2,416.5c6.6,6.2,9.8,14.5,9.8,24.9v228.7c0,44.4-12.4,78-37.1,100.8c-24.7,22.8-61.2,34.2-109.4,34.2
				c-42.1,0-77.2-7.9-105.4-23.7c-14.3-8.5-21.4-18.7-21.4-30.7c0-8.5,2-15.3,6.1-20.3c4.1-5,9.4-7.5,15.9-7.5
				c3.5,0,7.7,0.9,12.7,2.6c5,1.7,10.2,3.8,15.6,6.1c13.9,5.8,26.3,10.2,37.3,13.3c11,3.1,23.6,4.6,37.9,4.6
				c50.6,0,75.9-24.7,75.9-74.1v-37.1c-8.5,15.8-20.8,28.1-37.1,36.8s-34.7,13-55.6,13c-24.7,0-46.6-5.9-65.7-17.7
				c-19.1-11.8-34.1-28.3-44.9-49.5c-10.8-21.2-16.2-45.7-16.2-73.5c0-27.8,5.3-52.4,15.9-73.8c10.6-21.4,25.6-38,44.9-49.8
				c19.3-11.8,41.3-17.7,66-17.7c20.8,0,39.4,4.3,55.6,13s28.6,20.9,37.1,36.8v-15.1c0-10,3.3-18.1,9.8-24.3
				c6.6-6.2,15.2-9.3,26.1-9.3C886.9,407.2,895.6,410.3,902.2,416.5z M820.8,609.3c12.9-15.1,19.4-35.7,19.4-62
				c0-26.6-6.5-47.5-19.4-62.5c-12.9-15.1-31-22.6-54.1-22.6c-22.8,0-40.7,7.5-53.8,22.6c-13.1,15.1-19.7,35.9-19.7,62.5
				c0,26.3,6.6,46.9,19.7,62c13.1,15.1,31.1,22.6,53.8,22.6C789.8,631.9,807.9,624.4,820.8,609.3z"/>
			<path class="st1" d="M1251.9,522.5v142.4c0,10.8-3.2,19.3-9.6,25.5c-6.4,6.2-15.2,9.3-26.3,9.3c-11.2,0-20.1-3.1-26.6-9.3
				c-6.6-6.2-9.8-14.7-9.8-25.5V522.5c0-20.5-4.2-35.4-12.4-44.9c-8.3-9.5-21.3-14.2-39.1-14.2c-20.8,0-37.5,6.6-50.1,19.7
				c-12.5,13.1-18.8,30.7-18.8,52.7v129.1c0,10.8-3.3,19.3-9.8,25.5c-6.6,6.2-15.4,9.3-26.6,9.3c-11.2,0-20-3.1-26.3-9.3
				c-6.4-6.2-9.6-14.7-9.6-25.5V318.6c0-10,3.4-18.1,10.1-24.3c6.7-6.2,15.5-9.3,26.3-9.3c10.8,0,19.5,2.9,26.1,8.7
				c6.6,5.8,9.8,13.7,9.8,23.7v134.9c9.6-15.1,22.5-26.5,38.5-34.5c16-7.9,34.3-11.9,54.7-11.9
				C1218.7,406.1,1251.9,444.9,1251.9,522.5z"/>
		</g>
		<path class="st2" d="M1294.3,801L1294.3,801c-2.8,0-5-2.2-5-5V280c0-2.8,2.2-5,5-5l0,0c2.8,0,5,2.2,5,5v516
			C1299.3,798.7,1297,801,1294.3,801z"/>
	</g>
</g>
</svg>
