<svg width="493" height="70" viewBox="0 0 167 24" fill="none" xmlns="http://www.w3.org/2000/svg">
<path d="M35.7 12.3C35.7 8.1 38.9 4.5 43.4 4.5C45.7 4.5 47.2 5 48.5 6C48.8 6.2 49 6.6 49 7.1C49 7.8 48.4 8.4 47.7 8.4C47.4 8.4 47.1 8.3 46.9 8.1C45.9 7.4 44.8999 6.9 43.2999 6.9C40.4999 6.9 38.4 9.3 38.4 12.2C38.4 15.3 40.4 17.6 43.5 17.6C44.9 17.6 46.1999 17.2 47.0999 16.5V13.7H44.0999C43.4999 13.7 42.9 13.2 42.9 12.6C42.9 12 43.3999 11.4 44.0999 11.4H48.2999C49.0999 11.4 49.5999 12 49.5999 12.7V16.7C49.5999 17.5 49.3 18 48.7 18.4C47.4 19.3 45.6 20 43.4 20C38.8 20 35.7 16.7 35.7 12.3Z" fill="white"/>
<path d="M53.7 5.3C53.7 4.6 54.3 4 55 4C55.7 4 56.3 4.6 56.3 5.3V10.2C57 9.1 58.1 8.2 59.8 8.2C62.4 8.2 63.8 9.9 63.8 12.5V18.5C63.8 19.2 63.2 19.8 62.5 19.8C61.8 19.8 61.2 19.2 61.2 18.5V13.2C61.2 11.4 60.3 10.4 58.8 10.4C57.3 10.4 56.2 11.5 56.2 13.2V18.4C56.2 19.1 55.6 19.7 54.9 19.7C54.2 19.7 53.6 19.1 53.6 18.4V5.3H53.7Z" fill="white"/>
<path d="M67.2 14.2C67.2 10.9 69.8 8.19995 73.2 8.19995C76.7 8.19995 79.2 10.8 79.2 14.1C79.2 17.3 76.6 20 73.1 20C69.8 20 67.2 17.4 67.2 14.2ZM76.7 14.2C76.7 12.2 75.3 10.5 73.2 10.5C71.1 10.5 69.8 12.1 69.8 14.1C69.8 16.1 71.2 17.7 73.3 17.7C75.4 17.8 76.7 16.1 76.7 14.2Z" fill="white"/>
<path d="M82.4 18.6C82.1 18.5 81.9 18.1 81.9 17.7C81.9 17.1 82.4 16.6 83 16.6C83.2 16.6 83.4 16.7 83.6 16.8C84.7 17.5 85.8 17.9 86.9 17.9C88 17.9 88.7 17.4 88.7 16.7C88.7 15.8 87.5 15.5 86.2 15.1C84.5 14.6 82.7 13.9 82.7 11.8C82.7 9.70005 84.5 8.30005 86.7 8.30005C87.9 8.30005 89.2 8.60005 90.3 9.20005C90.7 9.40005 90.9 9.70005 90.9 10.2C90.9 10.8 90.4 11.3 89.8 11.3C89.6 11.3 89.5 11.3 89.3 11.2C88.4 10.7 87.4 10.4 86.6 10.4C85.6 10.4 85 10.9 85 11.5C85 12.3 86.2 12.7 87.6 13.1C89.3 13.6 91.1 14.4 91.1 16.4C91.1 18.8 89.3 20 86.9 20C85.2 20 83.7 19.5 82.4 18.6Z" fill="white"/>
<path d="M94.7 16.6V10.6H94.3C93.7 10.6 93.2 10.1 93.2 9.49995C93.2 8.89995 93.7 8.39995 94.3 8.39995H94.7V6.49995C94.7 5.79995 95.3 5.19995 96 5.19995C96.7 5.19995 97.3 5.79995 97.3 6.49995V8.39995H99.3C99.9 8.39995 100.4 8.89995 100.4 9.49995C100.4 10.1 99.9 10.6 99.3 10.6H97.3V16.2C97.3 17.2 97.8 17.6 98.7 17.6C99 17.6 99.3 17.5 99.3 17.5C99.9 17.5 100.4 18 100.4 18.6C100.4 19.1 100.1 19.5 99.7 19.6C99.2 19.9 98.7 20 98 20C96.1 20 94.7 19.1 94.7 16.6Z" fill="white"/>
<path d="M103.8 18.1C103.5 17.9 103.3 17.5 103.3 17.1C103.3 16.4 103.9 15.9 104.5 15.9C104.9 15.9 105.1 16 105.3 16.1C106.5 17.1 107.9 17.6 109.5 17.6C111.1 17.6 112.2 16.8 112.2 15.7C112.2 14.6 111.6 14 108.8 13.4C105.6 12.6 103.8 11.7 103.8 8.9C103.8 6.3 105.9 4.5 108.9 4.5C110.8 4.5 112.3 5 113.7 5.9C114 6.1 114.3 6.4 114.3 7C114.3 7.7 113.7 8.2 113.1 8.2C112.8 8.2 112.6 8.1 112.4 8C111.2 7.2 110.1 6.9 108.9 6.9C107.4 6.9 106.5 7.7 106.5 8.7C106.5 9.9 107.2 10.4 110.1 11.1C113.3 11.9 114.9 13 114.9 15.5C114.9 18.3 112.7 20 109.5 20C107.4 20 105.4 19.3 103.8 18.1Z" fill="white"/>
<path d="M118.9 16.6V10.6H118.5C117.9 10.6 117.4 10.1 117.4 9.49995C117.4 8.89995 117.9 8.39995 118.5 8.39995H118.9V6.49995C118.9 5.79995 119.5 5.19995 120.2 5.19995C120.9 5.19995 121.5 5.79995 121.5 6.49995V8.39995H123.5C124.1 8.39995 124.6 8.89995 124.6 9.49995C124.6 10.1 124.1 10.6 123.5 10.6H121.5V16.2C121.5 17.2 122 17.6 122.9 17.6C123.2 17.6 123.5 17.5 123.5 17.5C124.1 17.5 124.6 18 124.6 18.6C124.6 19.1 124.3 19.5 123.9 19.6C123.3 19.8 122.8 19.9 122.1 19.9C120.2 20 118.9 19.1 118.9 16.6Z" fill="white"/>
<path d="M132.9 20C129.6 20 127.1 17.6 127.1 14.1C127.1 10.9 129.4 8.19995 132.6 8.19995C136.2 8.19995 138 11.2 138 13.8C138 14.5 137.4 15 136.8 15H129.7C130 16.8 131.3 17.9 133 17.9C134.1 17.9 135 17.5 135.7 16.9C135.9 16.7 136.1 16.7 136.4 16.7C137 16.7 137.4 17.2 137.4 17.8C137.4 18.1 137.3 18.4 137.1 18.6C135.9 19.5 134.6 20 132.9 20ZM135.5 13.3C135.3 11.6 134.3 10.3 132.6 10.3C131 10.3 129.9 11.5 129.7 13.3H135.5Z" fill="white"/>
<path d="M140.7 16.5C140.7 14 142.6 12.8 145.4 12.8C146.7 12.8 147.6 13 148.4 13.3V13C148.4 11.4 147.4 10.5 145.6 10.5C144.6 10.5 143.8 10.7 143.1 11C143 11 142.8 11.1 142.7 11.1C142.1 11.1 141.6 10.6 141.6 10C141.6 9.50005 141.9 9.10005 142.3 9.00005C143.4 8.60005 144.5 8.30005 145.9 8.30005C147.6 8.30005 148.9 8.80005 149.7 9.60005C150.5 10.4 150.9 11.6 150.9 13.1V18.7C150.9 19.4 150.3 19.9 149.6 19.9C148.8 19.9 148.3 19.4 148.3 18.8V18.4C147.5 19.3 146.3 20.1 144.6 20.1C142.6 20 140.7 18.8 140.7 16.5ZM148.5 15.7V14.9C147.8 14.6 147 14.4 145.9 14.4C144.2 14.4 143.2 15.1 143.2 16.3C143.2 17.4 144.2 18 145.4 18C147.2 18.1 148.5 17.1 148.5 15.7Z" fill="white"/>
<path d="M166.1 18.6C166.1 19.3 165.5 19.9 164.8 19.9C164.1 19.9 163.5 19.3 163.5 18.6V17.9C162.7 19.1 161.5 20 159.6 20C156.9 20 154.3 17.9 154.3 14.1C154.3 10.3 156.9 8.2 159.6 8.2C161.5 8.2 162.6 9.1 163.5 10.2V5.3C163.5 4.6 164.1 4 164.8 4C165.5 4 166.1 4.6 166.1 5.3V18.6ZM157 14.1C157 16.3 158.5 17.8 160.3 17.8C162 17.8 163.6 16.3 163.6 14.2C163.6 12 162.1 10.6 160.3 10.6C158.5 10.5 157 11.8 157 14.1Z" fill="white"/>
<g style="mix-blend-mode:lighten" opacity="0.75">
<path d="M20.8 21.7C20.8 22.5 20.5 23.3 19.8 23.7C19.5 23.9 19.1 24 18.6 24C16.5 24 16.5 21.5 14.5 21.5C12.4 21.5 12.4 24 10.4 24C8.3 24 8.3 21.5 6.3 21.5C4.2 21.5 4.2 24 2.2 24C1.7 24 1.3 23.9 1 23.7C0.4 23.3 0 22.5 0 21.7V10.4C0 4.7 4.7 0 10.4 0C16.2 0 20.8 4.7 20.8 10.4V21.7Z" fill="white"/>
</g>
<path opacity="0.75" d="M29.1 21.7C29.1 22.5 28.8 23.3 28.1 23.7C27.8 23.9 27.4 24 26.9 24C24.8 24 24.8 21.5 22.8 21.5C20.7 21.5 20.7 24 18.7 24C16.6 24 16.6 21.5 14.6 21.5C12.5 21.5 12.5 24 10.5 24C9.99999 24 9.59999 23.9 9.29999 23.7C8.69999 23.3 8.29999 22.5 8.29999 21.7V10.4C8.29999 4.7 12.9 0 18.7 0C24.5 0 29.1 4.7 29.1 10.4V21.7Z" fill="white"/>
</svg>
