<svg width="24" height="24" viewBox="0 0 29 24" fill="none" xmlns="http://www.w3.org/2000/svg">
<path d="M35.6785 12.249C35.6785 8.06638 38.8766 4.48132 43.3739 4.48132C45.6725 4.48132 47.1716 4.97925 48.4708 5.9751C48.7706 6.17427 48.9705 6.57261 48.9705 7.07053C48.9705 7.76763 48.3709 8.36514 47.6713 8.36514C47.3715 8.36514 47.0717 8.26555 46.8718 8.06638C45.8724 7.36929 44.873 6.87136 43.2739 6.87136C40.4756 6.87136 38.3769 9.2614 38.3769 12.1494C38.3769 15.2365 40.3757 17.527 43.4738 17.527C44.873 17.527 46.1722 17.1286 47.0717 16.4315V13.6431H44.0735C43.4738 13.6431 42.8742 13.1452 42.8742 12.5477C42.8742 11.9502 43.3739 11.3527 44.0735 11.3527H48.2709C49.0705 11.3527 49.5701 11.9502 49.5701 12.6473V16.6307C49.5701 17.4274 49.2703 17.9253 48.6707 18.3236C47.3715 19.2199 45.5726 19.917 43.3739 19.917C38.7767 19.917 35.6785 16.6307 35.6785 12.249Z" fill="#2127BD"/>
<path d="M53.6677 5.278C53.6677 4.58091 54.2673 3.9834 54.9669 3.9834C55.6665 3.9834 56.2661 4.58091 56.2661 5.278V10.1577C56.9657 9.06223 58.065 8.16597 59.764 8.16597C62.3625 8.16597 63.7616 9.85891 63.7616 12.4481V18.4232C63.7616 19.1203 63.162 19.7178 62.4624 19.7178C61.7628 19.7178 61.1632 19.1203 61.1632 18.4232V13.1452C61.1632 11.3527 60.2637 10.3568 58.7646 10.3568C57.2655 10.3568 56.1662 11.4523 56.1662 13.1452V18.3236C56.1662 19.0207 55.5665 19.6182 54.867 19.6182C54.1674 19.6182 53.5677 19.0207 53.5677 18.3236V5.278H53.6677Z" fill="#2127BD"/>
<path d="M67.1595 14.1411C67.1595 10.8548 69.758 8.16602 73.1559 8.16602C76.6538 8.16602 79.1523 10.7552 79.1523 14.0415C79.1523 17.2282 76.5539 19.917 73.056 19.917C69.758 19.917 67.1595 17.3278 67.1595 14.1411ZM76.6538 14.1411C76.6538 12.1494 75.2547 10.4565 73.1559 10.4565C71.0572 10.4565 69.758 12.0498 69.758 14.0415C69.758 16.0332 71.1571 17.6266 73.2559 17.6266C75.3546 17.7262 76.6538 16.0332 76.6538 14.1411Z" fill="#2127BD"/>
<path d="M82.3504 18.5228C82.0506 18.4232 81.8507 18.0248 81.8507 17.6265C81.8507 17.029 82.3504 16.5311 82.95 16.5311C83.1499 16.5311 83.3498 16.6306 83.5497 16.7302C84.649 17.4273 85.7484 17.8257 86.8477 17.8257C87.947 17.8257 88.6466 17.3277 88.6466 16.6306C88.6466 15.7344 87.4473 15.4356 86.1481 15.0373C84.4491 14.5394 82.6502 13.8423 82.6502 11.751C82.6502 9.65969 84.4491 8.2655 86.6478 8.2655C87.8471 8.2655 89.1463 8.56426 90.2457 9.16177C90.6454 9.36094 90.8453 9.65969 90.8453 10.1576C90.8453 10.7551 90.3456 11.2531 89.746 11.2531C89.5461 11.2531 89.4461 11.2531 89.2463 11.1535C88.3468 10.6555 87.3474 10.3568 86.5479 10.3568C85.5485 10.3568 84.9488 10.8547 84.9488 11.4522C84.9488 12.2489 86.1481 12.6472 87.5473 13.0456C89.2462 13.5435 91.0452 14.3402 91.0452 16.3319C91.0452 18.7219 89.2463 19.9169 86.8477 19.9169C85.1487 19.9169 83.6496 19.419 82.3504 18.5228Z" fill="#2127BD"/>
<path d="M94.643 16.5312V10.5561H94.2432C93.6436 10.5561 93.1439 10.0581 93.1439 9.46062C93.1439 8.86311 93.6436 8.36518 94.2432 8.36518H94.643V6.47307C94.643 5.77598 95.2426 5.17847 95.9422 5.17847C96.6418 5.17847 97.2414 5.77598 97.2414 6.47307V8.36518H99.2402C99.8398 8.36518 100.34 8.86311 100.34 9.46062C100.34 10.0581 99.8398 10.5561 99.2402 10.5561H97.2414V16.1328C97.2414 17.1287 97.7411 17.527 98.6406 17.527C98.9404 17.527 99.2402 17.4274 99.2402 17.4274C99.8398 17.4274 100.34 17.9253 100.34 18.5229C100.34 19.0208 100.04 19.4191 99.64 19.5187C99.1403 19.8175 98.6406 19.917 97.941 19.917C96.0421 19.917 94.643 19.0208 94.643 16.5312Z" fill="#2127BD"/>
<path d="M103.738 18.0249C103.438 17.8257 103.238 17.4274 103.238 17.029C103.238 16.3319 103.837 15.834 104.437 15.834C104.837 15.834 105.037 15.9336 105.237 16.0332C106.436 17.029 107.835 17.527 109.434 17.527C111.033 17.527 112.132 16.7303 112.132 15.6348C112.132 14.5394 111.533 13.9419 108.735 13.3444C105.536 12.5477 103.738 11.6514 103.738 8.86306C103.738 6.27385 105.836 4.48132 108.834 4.48132C110.733 4.48132 112.232 4.97925 113.632 5.87551C113.931 6.07468 114.231 6.37344 114.231 6.97095C114.231 7.66804 113.632 8.16597 113.032 8.16597C112.732 8.16597 112.532 8.06638 112.332 7.9668C111.133 7.17012 110.034 6.87136 108.834 6.87136C107.335 6.87136 106.436 7.66804 106.436 8.66389C106.436 9.85891 107.135 10.3568 110.034 11.0539C113.232 11.8506 114.831 12.946 114.831 15.4357C114.831 18.224 112.632 19.917 109.434 19.917C107.335 19.917 105.337 19.2199 103.738 18.0249Z" fill="#005FFE"/>
<path d="M118.828 16.5312V10.5561H118.429C117.829 10.5561 117.329 10.0581 117.329 9.46062C117.329 8.86311 117.829 8.36519 118.429 8.36519H118.828V6.47307C118.828 5.77598 119.428 5.17847 120.128 5.17847C120.827 5.17847 121.427 5.77598 121.427 6.47307V8.36519H123.426C124.025 8.36519 124.525 8.86311 124.525 9.46062C124.525 10.0581 124.025 10.5561 123.426 10.5561H121.427V16.1328C121.427 17.1287 121.927 17.527 122.826 17.527C123.126 17.527 123.426 17.4274 123.426 17.4274C124.025 17.4274 124.525 17.9253 124.525 18.5229C124.525 19.0208 124.225 19.4191 123.825 19.5187C123.226 19.7179 122.726 19.8175 122.027 19.8175C120.128 19.917 118.828 19.0208 118.828 16.5312Z" fill="#005FFE"/>
<path d="M132.82 19.917C129.522 19.917 127.023 17.527 127.023 14.0415C127.023 10.8548 129.322 8.16602 132.52 8.16602C136.118 8.16602 137.917 11.1536 137.917 13.7428C137.917 14.4399 137.317 14.9378 136.718 14.9378H129.622C129.922 16.7303 131.221 17.8258 132.92 17.8258C134.019 17.8258 134.919 17.4274 135.618 16.8299C135.818 16.6307 136.018 16.6307 136.318 16.6307C136.918 16.6307 137.317 17.1287 137.317 17.7262C137.317 18.0249 137.217 18.3237 137.017 18.5229C135.818 19.4191 134.519 19.917 132.82 19.917ZM135.418 13.2448C135.219 11.5519 134.219 10.2573 132.52 10.2573C130.921 10.2573 129.822 11.4523 129.622 13.2448H135.418Z" fill="#005FFE"/>
<path d="M140.615 16.4315C140.615 13.9418 142.514 12.7468 145.312 12.7468C146.612 12.7468 147.511 12.946 148.311 13.2448V12.946C148.311 11.3526 147.311 10.4564 145.512 10.4564C144.513 10.4564 143.713 10.6555 143.014 10.9543C142.914 10.9543 142.714 11.0539 142.614 11.0539C142.014 11.0539 141.515 10.556 141.515 9.95845C141.515 9.46052 141.815 9.06218 142.214 8.9626C143.314 8.56426 144.413 8.2655 145.812 8.2655C147.511 8.2655 148.81 8.76343 149.61 9.56011C150.409 10.3568 150.809 11.5518 150.809 13.0456V18.6223C150.809 19.3194 150.21 19.8174 149.51 19.8174C148.71 19.8174 148.211 19.3194 148.211 18.7219V18.3236C147.411 19.2198 146.212 20.0165 144.513 20.0165C142.514 19.9169 140.615 18.7219 140.615 16.4315ZM148.411 15.6348V14.8381C147.711 14.5394 146.912 14.3402 145.812 14.3402C144.113 14.3402 143.114 15.0373 143.114 16.2323C143.114 17.3277 144.113 17.9252 145.312 17.9252C147.111 18.0248 148.411 17.029 148.411 15.6348Z" fill="#005FFE"/>
<path d="M166 18.5228C166 19.2199 165.4 19.8174 164.701 19.8174C164.001 19.8174 163.402 19.2199 163.402 18.5228V17.8257C162.602 19.0207 161.403 19.917 159.504 19.917C156.806 19.917 154.207 17.8257 154.207 14.0415C154.207 10.2573 156.806 8.16597 159.504 8.16597C161.403 8.16597 162.502 9.06223 163.402 10.1577V5.278C163.402 4.58091 164.001 3.9834 164.701 3.9834C165.4 3.9834 166 4.58091 166 5.278V18.5228ZM156.905 14.0415C156.905 16.2323 158.405 17.7261 160.204 17.7261C161.902 17.7261 163.502 16.2323 163.502 14.1411C163.502 11.9502 162.002 10.556 160.204 10.556C158.405 10.4564 156.905 11.751 156.905 14.0415Z" fill="#005FFE"/>
<path d="M20.7875 21.6099C20.7875 22.4066 20.4877 23.2033 19.7881 23.6016C19.4883 23.8008 19.0885 23.9004 18.5888 23.9004C16.4901 23.9004 16.4901 21.4108 14.4913 21.4108C12.3925 21.4108 12.3925 23.9004 10.3937 23.9004C8.295 23.9004 8.295 21.4108 6.29621 21.4108C4.19747 21.4108 4.19747 23.9004 2.19867 23.9004C1.69898 23.9004 1.29922 23.8008 0.999398 23.6016C0.399759 23.2033 0 22.4066 0 21.6099V10.3568C0 4.68049 4.69717 0 10.3937 0C16.1902 0 20.7875 4.68049 20.7875 10.3568V21.6099Z" fill="#00E0FF"/>
<path d="M29.0825 21.6099C29.0825 22.4066 28.7826 23.2033 28.0831 23.6016C27.7832 23.8008 27.3835 23.9004 26.8838 23.9004C24.785 23.9004 24.785 21.4108 22.7862 21.4108C20.6875 21.4108 20.6875 23.9004 18.6887 23.9004C16.59 23.9004 16.59 21.4108 14.5912 21.4108C12.4925 21.4108 12.4925 23.9004 10.4937 23.9004C9.99396 23.9004 9.5942 23.8008 9.29438 23.6016C8.69474 23.2033 8.29498 22.4066 8.29498 21.6099V10.3568C8.29498 4.68049 12.8922 0 18.6887 0C24.4852 0 29.0825 4.68049 29.0825 10.3568V21.6099Z" fill="#005FFE"/>
<path d="M14.4913 0.89624C18.189 2.4896 20.7875 6.17424 20.7875 10.4564V21.7095C20.7875 22.5062 20.4877 23.3029 19.7881 23.7012C19.4883 23.9004 19.0885 24 18.5888 24C16.4901 24 16.4901 21.5103 14.4913 21.5103C12.3925 21.5103 12.3925 24 10.3937 24C9.89404 24 9.49429 23.9004 9.19447 23.7012C8.59483 23.3029 8.19507 22.5062 8.19507 21.7095V10.3568C8.29501 6.07466 10.7935 2.4896 14.4913 0.89624Z" fill="#2127BD"/>
</svg>
